# Blender 3.6.1
# www.blender.org
mtllib pawn.mtl
o robe
v 0.218938 4.008150 -0.127283
v 1.424426 0.502259 -0.828116
v 0.218938 4.008150 0.127283
v 1.424426 0.502259 0.828116
v -0.218938 4.008150 -0.127283
v -1.424426 0.502259 -0.828116
v -0.218938 4.008150 0.127283
v -1.424426 0.502259 0.828116
v 0.000000 0.502259 -1.731884
v 0.000000 4.008150 0.266194
v 0.000000 0.502259 1.731884
v 0.000000 4.008150 -0.266194
vn -0.0000 1.0000 -0.0000
vn -0.5052 0.3329 0.7962
vn -0.9457 0.3252 -0.0000
vn -0.0000 -1.0000 -0.0000
vn 0.9457 0.3252 -0.0000
vn 0.5052 0.3329 -0.7962
vn -0.5052 0.3329 -0.7962
vn 0.5052 0.3329 0.7962
vt 0.750000 0.500000
vt 0.875000 0.500000
vt 0.875000 0.750000
vt 0.750000 0.750000
vt 0.375000 0.875000
vt 0.625000 0.875000
vt 0.625000 1.000000
vt 0.375000 1.000000
vt 0.375000 0.000000
vt 0.625000 0.000000
vt 0.625000 0.250000
vt 0.375000 0.250000
vt 0.250000 0.500000
vt 0.375000 0.500000
vt 0.375000 0.750000
vt 0.250000 0.750000
vt 0.625000 0.500000
vt 0.625000 0.750000
vt 0.375000 0.375000
vt 0.625000 0.375000
vt 0.125000 0.500000
vt 0.125000 0.750000
s 0
usemtl Material
f 12/1/1 5/2/1 7/3/1 10/4/1
f 11/5/2 10/6/2 7/7/2 8/8/2
f 8/9/3 7/10/3 5/11/3 6/12/3
f 9/13/4 2/14/4 4/15/4 11/16/4
f 2/14/5 1/17/5 3/18/5 4/15/5
f 9/19/6 12/20/6 1/17/6 2/14/6
f 6/12/7 5/11/7 12/20/7 9/19/7
f 6/21/4 9/13/4 11/16/4 8/22/4
f 4/15/8 3/18/8 10/6/8 11/5/8
f 1/17/1 12/1/1 10/4/1 3/18/1
o head
v -0.459775 3.975726 0.378531
v -0.463665 5.354305 0.405762
v -0.459775 3.975726 -0.378531
v -0.463665 5.354305 -0.405762
v 0.764265 3.849183 0.220884
v 0.790432 5.132571 0.553585
v 0.764265 3.849183 -0.220884
v 0.790432 5.132571 -0.553585
v -0.014467 3.993437 -0.531411
v 0.000000 5.358195 -0.768083
v -0.014467 3.993437 0.531411
v 0.000000 5.358195 0.768083
v -0.724630 4.700026 0.504370
v -0.724630 4.700026 -0.504370
v 0.911210 4.508242 -0.548380
v 0.911210 4.508242 0.548380
v 0.000000 4.556093 0.859806
v 0.000000 4.556093 -0.859806
vn -0.9288 0.3705 -0.0000
vn 0.3065 0.0835 -0.9482
vn 0.9818 0.1899 -0.0000
vn -0.4895 0.1987 0.8491
vn -0.1821 -0.9833 -0.0000
vn -0.0084 1.0000 -0.0000
vn 0.2745 0.9616 -0.0000
vn 0.0397 -0.9992 -0.0000
vn 0.3065 0.0835 0.9482
vn -0.4895 0.1987 -0.8491
vn -0.4033 -0.3733 -0.8355
vn 0.2534 -0.4833 0.8379
vn -0.4033 -0.3733 0.8355
vn 0.9760 -0.2176 -0.0000
vn 0.2534 -0.4833 -0.8379
vn -0.9392 -0.3434 -0.0000
vt 0.500000 0.000000
vt 0.625000 0.000000
vt 0.625000 0.250000
vt 0.500000 0.250000
vt 0.500000 0.375000
vt 0.625000 0.375000
vt 0.625000 0.500000
vt 0.500000 0.500000
vt 0.625000 0.750000
vt 0.500000 0.750000
vt 0.500000 0.875000
vt 0.625000 0.875000
vt 0.625000 1.000000
vt 0.500000 1.000000
vt 0.250000 0.500000
vt 0.375000 0.500000
vt 0.375000 0.750000
vt 0.250000 0.750000
vt 0.750000 0.500000
vt 0.875000 0.500000
vt 0.875000 0.750000
vt 0.750000 0.750000
vt 0.125000 0.500000
vt 0.125000 0.750000
vt 0.375000 0.250000
vt 0.375000 0.375000
vt 0.375000 0.875000
vt 0.375000 1.000000
vt 0.375000 0.000000
s 0
f 25/23/9 14/24/9 16/25/9 26/26/9
f 30/27/10 22/28/10 20/29/10 27/30/10
f 27/30/11 20/29/11 18/31/11 28/32/11
f 29/33/12 24/34/12 14/35/12 25/36/12
f 21/37/13 19/38/13 17/39/13 23/40/13
f 22/41/14 16/42/14 14/43/14 24/44/14
f 20/29/15 22/41/15 24/44/15 18/31/15
f 15/45/16 21/37/16 23/40/16 13/46/16
f 28/32/17 18/31/17 24/34/17 29/33/17
f 26/26/18 16/25/18 22/28/18 30/27/18
f 15/47/19 26/26/19 30/27/19 21/48/19
f 17/39/20 28/32/20 29/33/20 23/49/20
f 23/49/21 29/33/21 25/36/21 13/50/21
f 19/38/22 27/30/22 28/32/22 17/39/22
f 21/48/23 30/27/23 27/30/23 19/38/23
f 13/51/24 25/23/24 26/26/24 15/47/24
o hat
v 0.696257 5.168712 0.696257
v -0.233057 6.787952 0.140759
v -0.696257 5.168712 0.696257
v -0.615197 6.685421 0.140759
v 0.696257 5.168712 -0.696257
v -0.233057 6.787952 -0.252130
v -0.696257 5.168712 -0.696257
v -0.615197 6.685421 -0.252130
v -1.506017 5.038854 1.482699
v 1.506016 5.038854 1.482700
v -1.506017 5.038854 -1.482700
v 1.506017 5.038854 -1.482699
v -0.000000 5.168712 1.025277
v -0.424127 6.736686 0.233590
v 0.000000 5.168712 -1.025277
v -0.424127 6.736686 -0.344961
v -0.000000 5.038854 2.138161
v 0.000000 5.038854 -2.138162
v -1.025277 5.168712 -0.000000
v -0.705489 6.661195 -0.055685
v 1.025277 5.168712 0.000000
v -0.142765 6.812178 -0.055685
v -2.138162 5.038854 -0.000000
v 2.138161 5.038854 0.000000
v -0.000000 5.038854 0.000000
v -0.986422 7.178145 -0.069024
v 0.533927 5.662543 0.533927
v -0.533927 5.662543 0.533927
v -0.533927 5.662543 -0.533927
v 0.533927 5.662543 -0.533927
v 0.000000 5.662543 -0.786236
v -0.000000 5.662543 0.786236
v 0.786236 5.662543 0.000000
v -0.786236 5.662543 -0.000000
v 0.310927 6.162433 0.389829
v -0.511720 6.076101 0.389829
v -0.511720 6.076101 -0.436400
v 0.310927 6.162433 -0.436400
v -0.100396 6.119267 -0.631619
v -0.100396 6.119267 0.585048
v 0.505300 6.182831 -0.023285
v -0.706093 6.055703 -0.023286
vn -0.4494 0.2616 0.8541
vn -0.9052 -0.0236 -0.4244
vn 0.3027 0.5151 -0.8019
vn 0.6392 0.6854 0.3487
vn -0.1136 0.9923 -0.0501
vn 0.1593 0.6881 0.7079
vn -0.0000 -1.0000 -0.0000
vn -0.0509 0.9922 0.1140
vn 0.0509 0.9922 -0.1140
vn 0.1136 0.9923 0.0501
vn -0.0509 0.9922 -0.1140
vn 0.0509 0.9922 0.1140
vn -0.8016 -0.4247 0.4208
vn -0.4472 0.1806 -0.8760
vn 0.2804 0.5692 0.7729
vn -0.4379 0.0042 -0.8990
vn 0.1136 0.9923 -0.0501
vn 0.1713 0.6698 -0.7225
vn -0.1136 0.9923 0.0501
vn 0.6559 0.6661 -0.3551
vn -0.9065 0.0210 0.4218
vn -0.4462 0.0444 0.8938
vn 0.3852 0.8776 -0.2853
vn 0.3780 0.8817 0.2825
vn -0.7932 -0.4419 -0.4191
vn -0.8283 0.4009 0.3914
vn 0.8283 0.4009 -0.3914
vn 0.3914 0.4009 0.8283
vn -0.3914 0.4009 -0.8283
vn 0.8283 0.4009 0.3914
vn 0.3914 0.4009 -0.8283
vn -0.8283 0.4009 -0.3914
vn -0.3914 0.4009 0.8283
vn -0.8881 0.1987 0.4146
vn 0.8129 0.4301 -0.3927
vn 0.3717 0.4238 0.8260
vn -0.4258 0.2163 -0.8786
vn 0.7999 0.4586 0.3871
vn 0.3867 0.3551 -0.8511
vn -0.8952 0.1521 -0.4189
vn -0.4192 0.3020 0.8562
vt 0.562500 0.125000
vt 0.625000 0.125000
vt 0.625000 0.250000
vt 0.562500 0.250000
vt 0.562500 0.375000
vt 0.625000 0.375000
vt 0.625000 0.500000
vt 0.562500 0.500000
vt 0.562500 0.625000
vt 0.625000 0.625000
vt 0.625000 0.750000
vt 0.562500 0.750000
vt 0.562500 0.875000
vt 0.625000 0.875000
vt 0.625000 1.000000
vt 0.562500 1.000000
vt 0.375000 0.375000
vt 0.375000 0.500000
vt 0.750000 0.625000
vt 0.875000 0.625000
vt 0.875000 0.750000
vt 0.250000 0.625000
vt 0.375000 0.625000
vt 0.375000 0.750000
vt 0.250000 0.750000
vt 0.375000 0.125000
vt 0.375000 0.250000
vt 0.375000 0.875000
vt 0.375000 1.000000
vt 0.375000 0.000000
vt 0.250000 0.500000
vt 0.750000 0.500000
vt 0.875000 0.500000
vt 0.562500 0.000000
vt 0.625000 0.000000
vt 0.125000 0.500000
vt 0.125000 0.625000
vt 0.125000 0.750000
vt 0.750000 0.750000
vt 0.500000 0.250000
vt 0.500000 0.375000
vt 0.500000 0.750000
vt 0.500000 0.875000
vt 0.500000 0.000000
vt 0.500000 0.125000
vt 0.500000 0.500000
vt 0.500000 0.625000
vt 0.500000 1.000000
s 0
f 70/52/25 44/53/25 34/54/25 66/55/25
f 72/56/26 50/57/26 38/58/26 67/59/26
f 69/60/27 46/61/27 36/62/27 68/63/27
f 71/64/28 52/65/28 32/66/28 65/67/28
f 49/68/29 37/69/29 41/69/29 53/68/29
f 56/70/30 44/71/30 32/72/30
f 55/73/31 48/74/31 42/75/31 54/76/31
f 43/77/32 33/78/32 39/78/32 47/77/32
f 45/74/33 35/75/33 42/75/33 48/74/33
f 51/79/34 31/80/34 40/80/34 54/79/34
f 37/69/35 45/74/35 48/74/35 41/69/35
f 31/81/36 43/77/36 47/77/36 40/81/36
f 53/82/31 41/69/31 48/74/31 55/73/31
f 50/83/37 34/84/37 56/70/37
f 67/59/38 38/58/38 46/61/38 69/60/38
f 65/85/39 32/86/39 44/53/39 70/52/39
f 38/58/40 56/70/40 46/61/40
f 39/87/31 53/82/31 55/73/31 47/88/31
f 35/75/41 51/79/41 54/79/41 42/75/41
f 47/88/31 55/73/31 54/76/31 40/89/31
f 46/61/42 56/70/42 36/62/42
f 33/78/43 49/68/43 53/68/43 39/78/43
f 68/63/44 36/62/44 52/65/44 71/64/44
f 66/55/45 34/54/45 50/57/45 72/56/45
f 56/70/46 34/84/46 44/71/46
f 36/62/47 56/70/47 52/90/47
f 32/72/48 52/90/48 56/70/48
f 56/70/49 38/58/49 50/83/49
f 33/78/50 58/91/50 64/92/50 49/68/50
f 35/75/51 60/93/51 63/94/51 51/79/51
f 31/81/52 57/95/52 62/96/52 43/77/52
f 37/69/53 59/97/53 61/98/53 45/74/53
f 51/79/54 63/94/54 57/99/54 31/80/54
f 45/74/55 61/98/55 60/93/55 35/75/55
f 49/68/56 64/92/56 59/97/56 37/69/56
f 43/77/57 62/96/57 58/91/57 33/78/57
f 58/91/58 66/55/58 72/56/58 64/92/58
f 60/93/59 68/63/59 71/64/59 63/94/59
f 57/95/60 65/85/60 70/52/60 62/96/60
f 59/97/61 67/59/61 69/60/61 61/98/61
f 63/94/62 71/64/62 65/67/62 57/99/62
f 61/98/63 69/60/63 68/63/63 60/93/63
f 64/92/64 72/56/64 67/59/64 59/97/64
f 62/96/65 70/52/65 66/55/65 58/91/65
o legl
v -0.201234 0.000165 -0.599110
v -0.205343 0.700665 -0.600740
v -0.203418 0.000236 -1.001221
v -0.209306 0.700739 -1.001334
v 0.198762 0.000105 -0.599242
v 0.194632 0.700709 -0.600691
v 0.196569 0.000307 -1.001266
v 0.190651 0.700840 -1.001356
vn -0.9999 -0.0071 0.0077
vn -0.0001 -0.0001 -1.0000
vn 0.9999 0.0072 -0.0077
vn 0.0001 0.0022 1.0000
vn -0.0000 -1.0000 -0.0003
vn -0.0002 1.0000 0.0003
vt 0.375000 0.000000
vt 0.625000 0.000000
vt 0.625000 0.250000
vt 0.375000 0.250000
vt 0.625000 0.500000
vt 0.375000 0.500000
vt 0.625000 0.750000
vt 0.375000 0.750000
vt 0.625000 1.000000
vt 0.375000 1.000000
vt 0.125000 0.500000
vt 0.125000 0.750000
vt 0.875000 0.500000
vt 0.875000 0.750000
s 0
f 73/100/66 74/101/66 76/102/66 75/103/66
f 75/103/67 76/102/67 80/104/67 79/105/67
f 79/105/68 80/104/68 78/106/68 77/107/68
f 77/107/69 78/106/69 74/108/69 73/109/69
f 75/110/70 79/105/70 77/107/70 73/111/70
f 80/104/71 76/112/71 74/113/71 78/106/71
o legr
v -0.200000 0.000884 1.000000
v -0.200000 0.700884 1.000000
v -0.200000 0.000884 0.600000
v -0.200000 0.700884 0.600000
v 0.200000 0.000884 1.000000
v 0.200000 0.700884 1.000000
v 0.200000 0.000884 0.600000
v 0.200000 0.700884 0.600000
vn -1.0000 -0.0000 -0.0000
vn -0.0000 -0.0000 -1.0000
vn 1.0000 -0.0000 -0.0000
vn -0.0000 -0.0000 1.0000
vn -0.0000 -1.0000 -0.0000
vn -0.0000 1.0000 -0.0000
vt 0.375000 0.000000
vt 0.625000 0.000000
vt 0.625000 0.250000
vt 0.375000 0.250000
vt 0.625000 0.500000
vt 0.375000 0.500000
vt 0.625000 0.750000
vt 0.375000 0.750000
vt 0.625000 1.000000
vt 0.375000 1.000000
vt 0.125000 0.500000
vt 0.125000 0.750000
vt 0.875000 0.500000
vt 0.875000 0.750000
s 0
f 81/114/72 82/115/72 84/116/72 83/117/72
f 83/117/73 84/116/73 88/118/73 87/119/73
f 87/119/74 88/118/74 86/120/74 85/121/74
f 85/121/75 86/120/75 82/122/75 81/123/75
f 83/124/76 87/119/76 85/121/76 81/125/76
f 88/118/77 84/126/77 82/127/77 86/120/77
